<svg width="30" height="32" viewBox="0 0 30 32" fill="none" xmlns="http://www.w3.org/2000/svg">
<circle cx="17.5" cy="12.5" r="12.5" fill="#009F9F"/>
<path d="M5.85207 26.3949L7.82021 13.5545L17.9563 21.6792L5.85207 26.3949Z" fill="#009F9F"/>
<path d="M14.3315 11.563C14.5659 11.563 14.7607 11.6333 14.916 11.7739C15.0713 11.9116 15.1489 12.0889 15.1489 12.3057C15.1489 12.5225 15.0713 12.7012 14.916 12.8418C14.7607 12.9795 14.5659 13.0483 14.3315 13.0483C14.0942 13.0483 13.8979 12.978 13.7427 12.8374C13.5903 12.6968 13.5142 12.5195 13.5142 12.3057C13.5142 12.0918 13.5903 11.9146 13.7427 11.7739C13.8979 11.6333 14.0942 11.563 14.3315 11.563ZM17.0562 11.563C17.2905 11.563 17.4854 11.6333 17.6406 11.7739C17.7959 11.9116 17.8735 12.0889 17.8735 12.3057C17.8735 12.5225 17.7959 12.7012 17.6406 12.8418C17.4854 12.9795 17.2905 13.0483 17.0562 13.0483C16.8188 13.0483 16.6226 12.978 16.4673 12.8374C16.3149 12.6968 16.2388 12.5195 16.2388 12.3057C16.2388 12.0918 16.3149 11.9146 16.4673 11.7739C16.6226 11.6333 16.8188 11.563 17.0562 11.563ZM19.7808 11.563C20.0151 11.563 20.21 11.6333 20.3652 11.7739C20.5205 11.9116 20.5981 12.0889 20.5981 12.3057C20.5981 12.5225 20.5205 12.7012 20.3652 12.8418C20.21 12.9795 20.0151 13.0483 19.7808 13.0483C19.5435 13.0483 19.3472 12.978 19.1919 12.8374C19.0396 12.6968 18.9634 12.5195 18.9634 12.3057C18.9634 12.0918 19.0396 11.9146 19.1919 11.7739C19.3472 11.6333 19.5435 11.563 19.7808 11.563Z" fill="white"/>
</svg>
